<svg xmlns="http://www.w3.org/2000/svg" viewBox="0 0 1791.25 3032.58"><g id="Calque_2" data-name="Calque 2"><g id="_ÎÓÈ_1" data-name="—ÎÓÈ_1"><line x1="1590.23" y1="1465.19" x2="1635.94" y2="1018.13" style="fill:#a58567;stroke:#333;stroke-linecap:round;stroke-linejoin:round;stroke-width:50.543px"/><polyline points="155.3 1018.13 358.72 3007.31 1432.53 3007.31 1635.94 1018.13" style="fill:#515c75;stroke:#333;stroke-linecap:round;stroke-linejoin:round;stroke-width:50.543px"/><line x1="155.3" y1="1018.13" x2="200.63" y2="1461.43" style="fill:#a58567;stroke:#333;stroke-linecap:round;stroke-linejoin:round;stroke-width:50.543px"/><path d="M1764.94,960.46l-15.43-61.71a120.55,120.55,0,0,0-116.94-91.31H158.68A120.54,120.54,0,0,0,41.74,898.75L26.31,960.46A34.23,34.23,0,0,0,59.51,1003H1731.73A34.23,34.23,0,0,0,1764.94,960.46Z" style="fill:#fff;stroke:#333;stroke-linecap:round;stroke-linejoin:round;stroke-width:50.543px"/><path d="M235.66,807.44V764.62A128.28,128.28,0,0,1,363.94,636.34H1427.31a128.27,128.27,0,0,1,128.27,128.28v42.82" style="fill:#fff;stroke:#333;stroke-linecap:round;stroke-linejoin:round;stroke-width:50.543px"/><path d="M406.76,636.34h0A146.66,146.66,0,0,1,553.42,489.69H731.05A42.36,42.36,0,0,1,773.41,532v104.3" style="fill:#fff;stroke:#333;stroke-linecap:round;stroke-linejoin:round;stroke-width:50.543px"/><path d="M969,25.27s-97.77,84.29,0,236-48.88,252.86-48.88,252.86" style="fill:none;stroke:#333;stroke-linecap:round;stroke-linejoin:round;stroke-width:50.543px"/><path d="M1115.61,25.27s-97.77,84.29,0,236-48.89,252.86-48.89,252.86" style="fill:none;stroke:#333;stroke-linecap:round;stroke-linejoin:round;stroke-width:50.543px"/><polygon points="113.45 1467.4 1677.8 1467.4 1580.02 2420.68 211.22 2420.68 113.45 1467.4" style="fill:#bc8f71;stroke:#333;stroke-linecap:round;stroke-linejoin:round;stroke-width:50.543px"/><path d="M1194.57,2139a60.14,60.14,0,0,1-.47,6.84l1.07-8a54,54,0,0,1-3.1,11.53l3-7.17a52.08,52.08,0,0,1-4.21,8.08c-3.59,5.55,2.77-2.94,1.25-1.39-1.06,1.07-2,2.27-3,3.34-.92.91-1.9,1.75-2.85,2.63-3.55,3.3,7-4.76.89-.84a51.13,51.13,0,0,1-8.07,4.21l7.17-3a54.29,54.29,0,0,1-11.53,3.1l8-1.07c-6.72.85-13.66.48-20.41.48H682.45c-22.16,0-44.32.19-66.48,0a65.35,65.35,0,0,1-7.4-.48l8,1.07a54,54,0,0,1-11.52-3.1l7.16,3a51.57,51.57,0,0,1-8.07-4.21c-5.55-3.59,2.93,2.78,1.39,1.25-1.07-1.06-2.27-2-3.34-3-.92-.92-1.75-1.9-2.63-2.84-3.3-3.56,4.76,6.95.83.89a52,52,0,0,1-4.2-8.08l3,7.17a53.39,53.39,0,0,1-3.1-11.53l1.07,8c-1.87-14.8-2.58-29.91-3.93-44.78l-8.82-97-10.7-117.79-9.25-101.73c-1.43-15.69-3.58-31.5-4.3-47.24a41.81,41.81,0,0,1,.45-7.16l-1.07,8a53.7,53.7,0,0,1,3.1-11.53l-3,7.17a51.93,51.93,0,0,1,4.2-8.07c3.6-5.56-2.77,2.93-1.24,1.39,1.06-1.07,2-2.28,3-3.34.92-.92,1.9-1.75,2.84-2.63,3.55-3.31-7,4.76-.89.83a52.43,52.43,0,0,1,8.07-4.21l-7.16,3a54.06,54.06,0,0,1,11.52-3.11l-8,1.07c7.24-.91,14.76-.47,22-.47h531.38c24.69,0,49.39-.11,74.08,0a63,63,0,0,1,7.52.47l-8-1.07a54.06,54.06,0,0,1,11.52,3.11l-7.16-3a52.43,52.43,0,0,1,8.07,4.21c5.56,3.59-2.93-2.77-1.39-1.24,1.07,1,2.28,2,3.34,3,.92.91,1.75,1.89,2.63,2.84,3.31,3.55-4.76-7-.83-.89a52,52,0,0,1,4.21,8.07l-3-7.17a54.31,54.31,0,0,1,3.11,11.53l-1.08-8c.69,5.45.25,10.59-.08,16l-1.71,28.25-5.79,95.52-7.09,117-6.16,101.69c-1,16.54-2.5,33.14-3,49.7,0,.25,0,.49,0,.73-1,15.7,14.48,30.7,30,30,17.07-.76,29-13.19,30-30l4.14-68.32,8.92-147.15,8.42-138.87,2.4-39.62c.15-2.55.39-5.1.46-7.66.6-19.38-7.49-37.6-19.58-52.26-15.44-18.74-39.33-26.9-63-26.9H638.07c-19.47,0-38.94-.08-58.41,0a82.34,82.34,0,0,0-39,9.9c-23.57,12.7-37.19,36.69-40.12,62.67-.86,7.68.46,15.45,1.15,23.11l10.52,115.65,14,153.54L535.76,2129c.28,3,.62,6.05.83,9.07,1,14.8,3.4,28.51,11.28,41.41,15.25,25,41.92,38.26,70.78,38.26h497.1c19.91,0,39.82.19,59.72,0a79.82,79.82,0,0,0,79.1-78.74c.22-15.69-14-30.72-30-30C1208.13,2109.71,1194.81,2122.15,1194.57,2139Z" style="fill:#333"/><path d="M533.45,1803.47H1217.7c9.27,0,18.56.14,27.83,0h1.2c15.69,0,30.72-13.8,30-30s-13.19-30-30-30H562.47c-9.27,0-18.56-.13-27.83,0h-1.19c-15.7,0-30.73,13.8-30,30s13.18,30,30,30Z" style="fill:#333"/><path d="M996.24,1916.52l64.13,74.81,9,10.47v-42.42l-64.12,74.81-9,10.47c-5.25,6.13-8.78,12.9-8.78,21.21,0,7.36,3.26,16.15,8.78,21.22,11.22,10.29,31.52,12.72,42.43,0l64.12-74.81,9-10.48c11.17-13,11.25-29.3,0-42.42l-64.12-74.81-9-10.48c-10.25-12-32-11.31-42.43,0-11.69,12.74-10.93,29.67,0,42.43Z" style="fill:#333"/><path d="M752.58,1874.09l-64.13,74.81-9,10.48c-11.18,13-11.25,29.3,0,42.42l64.12,74.81,9,10.48c10.25,11.95,32,11.31,42.42,0,11.69-12.74,10.94-29.68,0-42.43l-64.12-74.81-9-10.47v42.42L786,1927l9-10.47c5.26-6.13,8.79-12.9,8.79-21.21,0-7.36-3.27-16.15-8.79-21.22-11.22-10.3-31.52-12.72-42.42,0Z" style="fill:#333"/><path d="M930.64,1831.43l-41.39,91L823.83,2066.4l-15,33.06c-3.43,7.55-5.31,14.82-3,23.12,1.91,7,7.29,14.5,13.78,17.93,13.16,6.95,34.12,4.49,41.05-10.76l41.38-91,65.43-143.94,15-33.06c3.44-7.54,5.31-14.81,3-23.11-1.92-7-7.3-14.5-13.79-17.93-13.15-7-34.11-4.49-41,10.76Z" style="fill:#333"/></g></g></svg>