<svg xmlns="http://www.w3.org/2000/svg" viewBox="0 0 179.5 192.15"><g id="Calque_2" data-name="Calque 2"><g id="_ÎÓÈ_1" data-name="—ÎÓÈ_1"><path d="M175.79,102.94a4.84,4.84,0,0,1-4.8,4.8H105.34L90.73,120.61V107.74H49.29V8.5a4.89,4.89,0,0,1,5-4.8H171a4.84,4.84,0,0,1,4.8,4.8v94.44Z" style="fill:#ff697b;fill-rule:evenodd"/><path d="M112.54,82.88s-26.17-16.58-29-29.67a12.84,12.84,0,0,1-.87-5,17.23,17.23,0,0,1,8.72-15.05,17.23,17.23,0,0,1,21.16,4.14,17.37,17.37,0,0,1,13.09-6.11,17.8,17.8,0,0,1,8.28,2,17.22,17.22,0,0,1,8.73,15.05,18.76,18.76,0,0,1-.87,5c-2.84,13.09-29.23,29.67-29.23,29.67Z" style="fill:#fff;fill-rule:evenodd"/><path d="M3.7,188.44V162.92c0-13.3,16.36-17,26.83-24l18.54,9.38,18.32-9.38c10.47,7,26.83,10.69,26.83,24v25.52Z" style="fill:#f6f7f7;fill-rule:evenodd"/><polygon points="49.07 148.31 57.36 180.15 49.07 188.44 40.78 180.15 49.07 148.31" style="fill:#659ec9;fill-rule:evenodd"/><path d="M49.07,75.68c-10.91,0-19.85,7.2-19.85,18.1,0,9.16,2.62,20.29,10,26.39v5c0,6.33-3.7,10.47-8.72,13.74l18.54,9.38,18.32-9.38c-5-3.27-8.72-7.41-8.72-13.74v-5c7.63-5.89,10-18.32,10-26.39,0-10.9-8.73-18.1-19.63-18.1Z" style="fill:#e4a98b;fill-rule:evenodd"/><path d="M51.24,126.49a3.7,3.7,0,0,1-.4-7.38c10.87-1.21,14.81-16.33,14.81-26.2,0-8.47-6.73-14.4-16.36-14.4-8,0-16.14,4.95-16.14,14.4,0,8,2.5,18.26,8.11,23.17a3.7,3.7,0,1,1-4.88,5.57c-7.86-6.87-10.64-19.77-10.64-28.74,0-12.43,10.12-21.81,23.55-21.81,13.78,0,23.77,9.17,23.77,21.81,0,10.79-4.47,31.68-21.41,33.56A2.75,2.75,0,0,1,51.24,126.49Z" style="fill:#434a53"/><path d="M3.7,192.15A3.7,3.7,0,0,1,0,188.44V162.7C0,150.46,10.65,145,20,140.19c9.78-5,15.73-8.55,15.73-15.44v-5.23a3.71,3.71,0,0,1,7.41,0v5.23c0,11.93-10.49,17.3-19.76,22-10,5.11-16,8.72-16,15.91v25.74A3.7,3.7,0,0,1,3.7,192.15Z" style="fill:#434a53"/><path d="M94.87,192.15a3.7,3.7,0,0,1-3.7-3.71V162.7c0-7.19-6.06-10.8-16-15.91-9.26-4.74-19.76-10.11-19.76-22v-5.23a3.71,3.71,0,0,1,7.41,0v5.23c0,6.89,6,10.43,15.73,15.44,9.4,4.82,20,10.27,20,22.51v25.74A3.7,3.7,0,0,1,94.87,192.15Z" style="fill:#434a53"/><path d="M21.59,192.15a3.71,3.71,0,0,1-3.71-3.71V167.29a3.71,3.71,0,1,1,7.41,0v21.15A3.7,3.7,0,0,1,21.59,192.15Z" style="fill:#434a53"/><path d="M77.21,192.15a3.71,3.71,0,0,1-3.71-3.71V167.29a3.71,3.71,0,1,1,7.41,0v21.15A3.7,3.7,0,0,1,77.21,192.15Z" style="fill:#434a53"/><path d="M49.29,151.8a3.63,3.63,0,0,1-1.71-.42L29,141.78a3.71,3.71,0,0,1,3.41-6.58L51,144.8a3.71,3.71,0,0,1-1.7,7Z" style="fill:#434a53"/><path d="M49.29,151.8a3.71,3.71,0,0,1-1.7-7l18.76-9.59a3.7,3.7,0,1,1,3.38,6.59L51,151.39A3.66,3.66,0,0,1,49.29,151.8Z" style="fill:#434a53"/><path d="M49.29,192.15a3.73,3.73,0,0,1-2.63-1.09l-8.29-8.29a3.69,3.69,0,0,1-1-3.56l3.06-11.56a3.71,3.71,0,1,1,7.17,1.89L45.13,179l4.19,4.19L53.65,179,45.7,149a3.71,3.71,0,0,1,7.17-1.9l8.51,32.06a3.7,3.7,0,0,1-1,3.6l-8.51,8.29A3.64,3.64,0,0,1,49.29,192.15Z" style="fill:#434a53"/><path d="M90.73,124.31a3.68,3.68,0,0,1-3.71-3.7v-9.17H79.39a3.71,3.71,0,1,1,0-7.41H90.73a3.7,3.7,0,0,1,3.7,3.71v4.66l8.46-7.44a3.7,3.7,0,0,1,2.45-.93H171a1.14,1.14,0,0,0,1.1-1.09V30.09a3.71,3.71,0,0,1,7.41,0v72.85a8.51,8.51,0,0,1-8.51,8.5H106.74l-13.56,12A3.72,3.72,0,0,1,90.73,124.31Zm-41.44-58a3.7,3.7,0,0,1-3.71-3.71V8.5A8.63,8.63,0,0,1,54.3,0H171a8.51,8.51,0,0,1,8.51,8.5v7.85a3.71,3.71,0,1,1-7.41,0V8.5A1.14,1.14,0,0,0,171,7.41H54.3A1.21,1.21,0,0,0,53,8.5V62.59A3.7,3.7,0,0,1,49.29,66.3Z" style="fill:#434a53"/><path d="M112.54,86.14a3.77,3.77,0,0,1-2-.56c-2.77-1.74-27.14-17.37-30.23-31.35a24.63,24.63,0,0,1-1-6A20.35,20.35,0,0,1,90,30.32a21,21,0,0,1,22.5,2.09A21,21,0,0,1,135,30.32a3.71,3.71,0,1,1-3.55,6.52A13.46,13.46,0,0,0,115.34,40a3.85,3.85,0,0,1-5.6,0,13.44,13.44,0,0,0-16.15-3.11A12.92,12.92,0,0,0,86.8,48.2a18.66,18.66,0,0,0,.76,4.32c1.9,8.6,17.19,20.3,25,25.5,7.81-5.21,23.16-16.91,25.19-25.44a18.18,18.18,0,0,0,.55-4.38,13.09,13.09,0,0,0-1-5.26,3.71,3.71,0,0,1,6.78-3,20.49,20.49,0,0,1,1.63,8.28,25.28,25.28,0,0,1-.76,6.13c-3.3,13.9-27.66,29.51-30.42,31.25A3.77,3.77,0,0,1,112.54,86.14Z" style="fill:#434a53"/></g></g></svg>