<svg xmlns="http://www.w3.org/2000/svg" viewBox="0 0 150.25 192.13"><g id="Calque_2" data-name="Calque 2"><g id="_ÎÓÈ_1" data-name="—ÎÓÈ_1"><rect x="20.28" y="3.71" width="126.27" height="151.57" style="fill:#f6f7f7"/><path d="M146.55,155.27H20.28a16.58,16.58,0,1,0,0,33.15H146.55a27.47,27.47,0,0,1,0-33.15Z" style="fill:#e4e7e7;fill-rule:evenodd"/><path d="M20.28,155.27V3.71A16.57,16.57,0,0,0,3.7,20.28V171.85a16.58,16.58,0,0,1,16.58-16.58Z" style="fill:#b9bbbb;fill-rule:evenodd"/><path d="M63.46,87a27.67,27.67,0,0,1,39.91,0c4.57,4.8,8.06,11.34,8.06,18.32C111.43,120.6,98.79,123,83.3,123c-15.26,0-27.91-2.4-27.91-17.67,0-7,3.27-13.52,8.07-18.32Z" style="fill:#659ec9;fill-rule:evenodd"/><path d="M83.3,36.42A16.15,16.15,0,0,1,99.66,52.56c0,8.94-7.2,24.86-16.36,24.86-8.94,0-16.14-15.92-16.14-24.86A16.1,16.1,0,0,1,83.3,36.42Z" style="fill:#ffdbab;fill-rule:evenodd"/><path d="M20.28,192.13a20.29,20.29,0,0,1,0-40.57,3.71,3.71,0,0,1,0,7.42,12.87,12.87,0,1,0,0,25.73,3.71,3.71,0,0,1,0,7.42Z" style="fill:#434a53"/><path d="M3.7,24A3.7,3.7,0,0,1,0,20.28,20.31,20.31,0,0,1,20.28,0a3.71,3.71,0,0,1,0,7.42A12.88,12.88,0,0,0,7.41,20.28,3.7,3.7,0,0,1,3.7,24Z" style="fill:#434a53"/><path d="M3.7,175.56A3.7,3.7,0,0,1,0,171.85V20.28a3.71,3.71,0,1,1,7.41,0V171.85A3.7,3.7,0,0,1,3.7,175.56Z" style="fill:#434a53"/><path d="M20.28,159a3.71,3.71,0,0,1-3.71-3.71V17A3.71,3.71,0,1,1,24,17V155.27A3.7,3.7,0,0,1,20.28,159Z" style="fill:#434a53"/><path d="M146.54,7.42H20.28a3.71,3.71,0,0,1,0-7.42H146.54a3.71,3.71,0,1,1,0,7.42Z" style="fill:#434a53"/><path d="M146.54,159H20.28a3.71,3.71,0,0,1,0-7.42H146.54a3.71,3.71,0,1,1,0,7.42Z" style="fill:#434a53"/><path d="M146.54,192.13H32.27a3.71,3.71,0,0,1,0-7.42H146.54a3.71,3.71,0,1,1,0,7.42Z" style="fill:#434a53"/><path d="M146.54,159a3.7,3.7,0,0,1-3.7-3.71V3.71a3.71,3.71,0,1,1,7.41,0V155.27A3.71,3.71,0,0,1,146.54,159Z" style="fill:#434a53"/><path d="M146.54,192.13a3.72,3.72,0,0,1-3-1.47,31.37,31.37,0,0,1,0-37.63,3.71,3.71,0,1,1,5.92,4.48,23.91,23.91,0,0,0,0,28.68,3.7,3.7,0,0,1-.72,5.19A3.66,3.66,0,0,1,146.54,192.13Z" style="fill:#434a53"/><path d="M83.3,80.91c-12.25,0-20-18.91-20-28.79a20.06,20.06,0,1,1,40.12,0C103.37,62,95.55,80.91,83.3,80.91Zm0-41.44A12.82,12.82,0,0,0,70.65,52.12c0,8.24,6.91,21.37,12.65,21.37S96,60.56,96,52.12A12.67,12.67,0,0,0,83.3,39.47Z" style="fill:#434a53"/><path d="M83.3,126.71c-10.26,0-31.62,0-31.62-21.6,0-7.44,3.14-14.66,9.1-20.88a3.71,3.71,0,0,1,5.35,5.13c-3.21,3.36-7,8.81-7,15.75,0,10.47,6.33,14.18,24.21,14.18,18,0,24.43-3.71,24.43-14.18,0-6.94-3.83-12.39-7-15.75A3.71,3.71,0,0,1,106,84.23c6,6.22,9.1,13.44,9.1,20.88C115.14,126.71,93.64,126.71,83.3,126.71Z" style="fill:#434a53"/><path d="M83.3,101a3.69,3.69,0,0,1-2.68-1.15l-4.36-4.58a3.7,3.7,0,1,1,5.36-5.11L86,94.71A3.7,3.7,0,0,1,83.3,101Z" style="fill:#434a53"/><path d="M83.3,101a3.71,3.71,0,0,1-2.62-6.33l4.58-4.58A3.71,3.71,0,0,1,90.5,95.3l-4.58,4.58A3.7,3.7,0,0,1,83.3,101Z" style="fill:#434a53"/><path d="M83.3,126.71A3.72,3.72,0,0,1,79.59,123V97.26a3.71,3.71,0,1,1,7.41,0V123A3.71,3.71,0,0,1,83.3,126.71Z" style="fill:#434a53"/><path d="M141.1,175.56H20.28a3.71,3.71,0,1,1,0-7.42H141.1a3.71,3.71,0,0,1,0,7.42Z" style="fill:#434a53"/></g></g></svg>