<svg xmlns="http://www.w3.org/2000/svg" viewBox="0 0 191.94 163.38"><g id="Calque_2" data-name="Calque 2"><g id="_ÎÓÈ_1" data-name="—ÎÓÈ_1"><path d="M3.7,136.33V3.71H188.23V136.33Z" style="fill:#c1e8ff;fill-rule:evenodd"/><path d="M31.62,123.68a14.94,14.94,0,0,0-14.83-15.27V31.63A14.94,14.94,0,0,0,31.62,16.36h128.7a15.13,15.13,0,0,0,15.05,15.27v76.78a15.13,15.13,0,0,0-15.05,15.27Z" style="fill:#f6f7f7;fill-rule:evenodd"/><polygon points="134.79 124.77 134.79 159.67 121.71 155.74 108.62 159.67 108.62 124.77 134.79 124.77" style="fill:#ff697b;fill-rule:evenodd"/><path d="M121.71,101a17.67,17.67,0,1,1,0,35.34,17.67,17.67,0,1,1,0-35.34Z" style="fill:#fcf09d;fill-rule:evenodd"/><path d="M36.64,100.34V86.6c0-7.2,8.94-9.17,14.61-13.09l10,5.23,9.81-5.23c5.67,3.92,14.62,5.89,14.62,13.09v13.74Z" style="fill:#659ec9;fill-rule:evenodd"/><path d="M61.29,39.48c-6.11,0-10.91,3.71-10.91,9.6,0,5,1.53,11.12,5.45,14.39v2.84c0,3.27-2,5.45-4.58,7.2l10,5.23,9.81-5.23c-2.61-1.75-4.58-3.93-4.58-7.2V63.47C70.45,60.2,72,53.66,72,49.08c0-5.89-4.8-9.6-10.69-9.6Z" style="fill:#e4a98b;fill-rule:evenodd"/><path d="M188.24,140H148.76a3.71,3.71,0,1,1,0-7.42h35.77V7.42H7.41v125.2H95.53a3.71,3.71,0,0,1,0,7.42H3.7A3.7,3.7,0,0,1,0,136.33V3.71A3.7,3.7,0,0,1,3.7,0H188.24a3.7,3.7,0,0,1,3.7,3.71V136.33A3.7,3.7,0,0,1,188.24,140Z" style="fill:#434a53"/><path d="M160.31,127.39h-9.16a3.71,3.71,0,0,1,0-7.42H157a19,19,0,0,1,14.7-14.9V35A18.93,18.93,0,0,1,157,20.07H35A18.47,18.47,0,0,1,20.49,35v70.09A18.48,18.48,0,0,1,35,120H90.74a3.71,3.71,0,0,1,0,7.42H31.62a3.7,3.7,0,0,1-3.7-3.71,11.24,11.24,0,0,0-11.13-11.56,3.71,3.71,0,0,1-3.71-3.71V31.63a3.71,3.71,0,0,1,3.71-3.71A11.24,11.24,0,0,0,27.92,16.36a3.71,3.71,0,0,1,3.7-3.71H160.31A3.71,3.71,0,0,1,164,16.36a11.46,11.46,0,0,0,11.35,11.56,3.7,3.7,0,0,1,3.7,3.71v76.78a3.7,3.7,0,0,1-3.7,3.71A11.46,11.46,0,0,0,164,123.68,3.7,3.7,0,0,1,160.31,127.39Z" style="fill:#434a53"/><path d="M121.7,140a21.38,21.38,0,1,1,21.6-21.38A21.41,21.41,0,0,1,121.7,140Zm0-35.34a14,14,0,0,0,0,27.92,14,14,0,1,0,0-27.92Z" style="fill:#434a53"/><path d="M138.5,54.75H107.1a3.71,3.71,0,1,1,0-7.42h31.4a3.71,3.71,0,0,1,0,7.42Z" style="fill:#434a53"/><path d="M152,39.05H93.57a3.71,3.71,0,0,1,0-7.42H152a3.71,3.71,0,0,1,0,7.42Z" style="fill:#434a53"/><path d="M134.79,163.37a3.54,3.54,0,0,1-1.06-.16l-12-3.6-12,3.6a3.66,3.66,0,0,1-3.28-.57,3.7,3.7,0,0,1-1.49-3V144a3.71,3.71,0,1,1,7.41,0v10.72l8.31-2.49a3.68,3.68,0,0,1,2.13,0l8.32,2.49v-24a3.71,3.71,0,1,1,7.41,0v29a3.7,3.7,0,0,1-3.71,3.71Z" style="fill:#434a53"/><path d="M66.53,67.18a3.71,3.71,0,0,1-2.21-6.69c2.71-2,4-7.31,4-11.41s-3.51-5.89-7-5.89a3.71,3.71,0,1,1,0-7.42c8.34,0,14.39,5.6,14.39,13.31,0,5.92-1.83,13.59-7,17.38A3.69,3.69,0,0,1,66.53,67.18Z" style="fill:#434a53"/><path d="M36.64,104.26a3.7,3.7,0,0,1-3.7-3.7v-14c0-7.51,6.5-10.8,11.73-13.45s7.68-4.16,7.68-6.83V63.47a3.71,3.71,0,0,1,7.41,0v2.84c0,7.52-6.51,10.81-11.74,13.45s-7.67,4.17-7.67,6.83v14A3.71,3.71,0,0,1,36.64,104.26Z" style="fill:#434a53"/><path d="M85.72,104.26a3.71,3.71,0,0,1-3.71-3.7v-14c0-2.67-2.42-4.2-7.58-6.83s-11.61-6-11.61-13.45V63.47a3.71,3.71,0,0,1,7.41,0v2.84c0,2.67,2.43,4.21,7.58,6.84s11.61,5.94,11.61,13.44v14A3.7,3.7,0,0,1,85.72,104.26Z" style="fill:#434a53"/><path d="M47.76,104.26a3.7,3.7,0,0,1-3.7-3.7V92.27a3.71,3.71,0,1,1,7.41,0v8.29A3.71,3.71,0,0,1,47.76,104.26Z" style="fill:#434a53"/><path d="M74.6,104.26a3.71,3.71,0,0,1-3.71-3.7V92.27a3.71,3.71,0,1,1,7.41,0v8.29A3.7,3.7,0,0,1,74.6,104.26Z" style="fill:#434a53"/><path d="M61.29,82.45a3.61,3.61,0,0,1-1.66-.39l-10-5a3.71,3.71,0,0,1,3.32-6.64l10,5a3.71,3.71,0,0,1-1.66,7Z" style="fill:#434a53"/><path d="M61.29,82.45a3.71,3.71,0,0,1-1.66-7l10-5A3.71,3.71,0,0,1,73,77.05l-10,5A3.64,3.64,0,0,1,61.29,82.45Z" style="fill:#434a53"/><path d="M56.05,67.18a3.67,3.67,0,0,1-2.2-.72c-5.13-3.79-7-11.46-7-17.38,0-7.71,6.05-13.31,14.39-13.31a3.71,3.71,0,0,1,0,7.42c-3.47,0-7,1.82-7,5.89s1.24,9.41,3.94,11.41a3.71,3.71,0,0,1-2.2,6.69Z" style="fill:#434a53"/><path d="M152,70.67H93.57a3.71,3.71,0,0,1,0-7.41H152a3.71,3.71,0,0,1,0,7.41Z" style="fill:#434a53"/><path d="M138.5,86.38H107.1a3.71,3.71,0,1,1,0-7.42h31.4a3.71,3.71,0,0,1,0,7.42Z" style="fill:#434a53"/></g></g></svg>