<svg xmlns="http://www.w3.org/2000/svg" viewBox="0 0 128.91 191.95"><g id="Calque_2" data-name="Calque 2"><g id="_ÎÓÈ_1" data-name="—ÎÓÈ_1"><path d="M64.34,15.92a6.1,6.1,0,0,0,6.11-6.11,6,6,0,0,0-6.11-6.1,6.1,6.1,0,0,0-6.11,6.1,6.24,6.24,0,0,0,6.11,6.11Z" style="fill:#b9bbbb;fill-rule:evenodd"/><path d="M57.8,188.24V36.86a6.55,6.55,0,0,1,6.54-6.54,6.75,6.75,0,0,1,6.76,6.54V188.24Z" style="fill:#d18669;fill-rule:evenodd"/><polygon points="3.7 104.26 105.56 114.3 125.2 80.92 105.56 47.33 3.7 57.37 3.7 104.26" style="fill:#ffdbab;fill-rule:evenodd"/><path d="M94,192H19.63a3.71,3.71,0,0,1,0-7.42H94A3.71,3.71,0,0,1,94,192Z" style="fill:#434a53"/><path d="M109.06,192h-3.71a3.71,3.71,0,0,1,0-7.42h3.71a3.71,3.71,0,0,1,0,7.42Z" style="fill:#434a53"/><path d="M71.1,192a3.7,3.7,0,0,1-3.7-3.71V120.4a3.71,3.71,0,0,1,7.41,0v67.84A3.71,3.71,0,0,1,71.1,192Zm-13.31,0a3.7,3.7,0,0,1-3.7-3.71V109.5a3.71,3.71,0,1,1,7.41,0v78.74A3.7,3.7,0,0,1,57.79,192ZM71.1,54.53a3.7,3.7,0,0,1-3.7-3.71v-14A3.07,3.07,0,0,0,64.34,34a2.87,2.87,0,0,0-2.84,2.83v6.33a3.71,3.71,0,0,1-7.41,0V36.86A10.26,10.26,0,0,1,64.34,26.61,10.51,10.51,0,0,1,74.81,36.86v14A3.71,3.71,0,0,1,71.1,54.53Z" style="fill:#434a53"/><path d="M64.34,19.63a10,10,0,0,1-9.81-9.82A9.82,9.82,0,0,1,64.34,0a3.71,3.71,0,0,1,0,7.42,2.4,2.4,0,0,0-2.41,2.39,2.57,2.57,0,0,0,2.41,2.4,2.38,2.38,0,0,0,2.4-2.4,3.71,3.71,0,0,1,7.41,0A9.82,9.82,0,0,1,64.34,19.63Z" style="fill:#434a53"/><path d="M64.34,34a3.72,3.72,0,0,1-3.71-3.71V15.92a3.71,3.71,0,1,1,7.41,0v14.4A3.71,3.71,0,0,1,64.34,34Z" style="fill:#434a53"/><path d="M105.56,118h-.36L3.34,108A3.7,3.7,0,0,1,0,104.26V95.32a3.71,3.71,0,1,1,7.41,0v5.58l96.16,9.47L120.9,80.92,103.56,51.26,7.41,60.72V84.19a3.71,3.71,0,1,1-7.41,0V57.37a3.7,3.7,0,0,1,3.34-3.69l101.86-10a3.74,3.74,0,0,1,3.56,1.82L128.4,79.05a3.68,3.68,0,0,1,0,3.75l-19.63,33.37A3.69,3.69,0,0,1,105.56,118Z" style="fill:#434a53"/><path d="M32.27,95.54a10.92,10.92,0,0,1-10.9-10.91,3.71,3.71,0,1,1,7.41,0,3.54,3.54,0,0,0,3.49,3.49A3.62,3.62,0,0,0,36,84.63V69.8a3.71,3.71,0,1,1,7.41,0V84.63A11,11,0,0,1,32.27,95.54Z" style="fill:#434a53"/><path d="M62.81,95.54A11,11,0,0,1,51.69,84.63V77A11,11,0,0,1,62.81,66.09,10.92,10.92,0,0,1,73.72,77v7.63A10.92,10.92,0,0,1,62.81,95.54Zm0-22A3.61,3.61,0,0,0,59.1,77v7.63a3.62,3.62,0,0,0,3.71,3.49,3.54,3.54,0,0,0,3.5-3.49V77A3.53,3.53,0,0,0,62.81,73.51Z" style="fill:#434a53"/><path d="M94.22,95.54h-8.5A3.72,3.72,0,0,1,82,91.83V79.39a3.71,3.71,0,0,1,3.71-3.7h8.5a9.93,9.93,0,0,1,0,19.85Zm-4.8-7.42h4.8a2.41,2.41,0,0,0,2.41-2.4,2.47,2.47,0,0,0-2.41-2.62h-4.8Z" style="fill:#434a53"/><path d="M92.7,83.1a3.72,3.72,0,0,1-3.5-2.45A3.7,3.7,0,0,1,82,79.39V69.8a3.71,3.71,0,0,1,3.71-3.71h7a8.51,8.51,0,1,1,0,17Zm-3.28-9.59v4.14a3.72,3.72,0,0,1,3.28-2,1.11,1.11,0,1,0,0-2.18Z" style="fill:#434a53"/></g></g></svg>