<svg xmlns="http://www.w3.org/2000/svg" viewBox="0 0 192.1 192.28"><g id="Calque_2" data-name="Calque 2"><g id="_ÎÓÈ_1" data-name="—ÎÓÈ_1"><path d="M78.62,153.62a74.8,74.8,0,1,0-74.8-74.8,74.92,74.92,0,0,0,74.8,74.8Z" style="fill:#f6f7f7;fill-rule:evenodd"/><path d="M56.16,87.11a31.07,31.07,0,0,1,44.92,0c5.24,5.45,9,12.65,9,20.5,0,17.23-14,20.06-31.41,20.06-17.23,0-31.4-2.83-31.4-20.06,0-7.85,3.7-15,8.94-20.5Z" style="fill:#659ec9;fill-rule:evenodd"/><path d="M78.62,30.19a18.25,18.25,0,0,1,18.32,18.1c0,10.25-8.29,27.91-18.32,27.91S60.3,58.54,60.3,48.29a18.25,18.25,0,0,1,18.32-18.1Z" style="fill:#efb18f;fill-rule:evenodd"/><path d="M153.21,137.49l-15.92,16.13,32.49,32.5a8.55,8.55,0,0,0,12,0l4.15-4.14a8.57,8.57,0,0,0,0-12Z" style="fill:#659ec9;fill-rule:evenodd"/><path d="M175.78,192.28a12.1,12.1,0,0,1-8.62-3.54l-32.49-32.49a3.71,3.71,0,0,1,0-5.23l15.92-16.14a3.68,3.68,0,0,1,2.62-1.1h0a3.69,3.69,0,0,1,2.61,1.08l32.72,32.49a12.21,12.21,0,0,1,0,17.24l-4.14,4.15A12.11,12.11,0,0,1,175.78,192.28Zm-33.27-38.67,29.9,29.89a5,5,0,0,0,6.74,0l4.15-4.15a4.84,4.84,0,0,0,0-6.75l-30.06-29.86Z" style="fill:#434a53"/><path d="M156,156.89a3.7,3.7,0,0,1-2.67-6.28l6.33-6.54a3.71,3.71,0,0,1,5.34,5.15l-6.33,6.54A3.72,3.72,0,0,1,156,156.89Z" style="fill:#434a53"/><path d="M145.36,149.26a3.69,3.69,0,0,1-2.62-1.08L129,134.44a3.71,3.71,0,0,1,5.25-5.24L148,142.93a3.71,3.71,0,0,1-2.62,6.33Z" style="fill:#434a53"/><path d="M78.62,157.6h0A78.82,78.82,0,0,1,0,78.82,78.66,78.66,0,0,1,124.63,15a3.7,3.7,0,0,1-4.34,6,71.27,71.27,0,0,0-92,108.22,70.51,70.51,0,0,0,50.37,21h0a70.52,70.52,0,0,0,50.37-21,70.89,70.89,0,0,0,7.47-92.05,3.71,3.71,0,0,1,6-4.35,78.25,78.25,0,0,1-8.23,101.63A77.86,77.86,0,0,1,78.62,157.6Z" style="fill:#434a53"/><path d="M78.62,79.91c-13.45,0-22-20.76-22-31.62a22,22,0,0,1,44.05,0C100.65,59.15,92.07,79.91,78.62,79.91Zm0-46A14.52,14.52,0,0,0,64,48.29c0,9.56,7.83,24.21,14.61,24.21S93.24,57.85,93.24,48.29A14.53,14.53,0,0,0,78.62,33.89Z" style="fill:#434a53"/><path d="M78.62,131.38c-10.51,0-35.11,0-35.11-23.77,0-8.17,3.54-16.37,10-23.07a3.71,3.71,0,0,1,5.35,5.13c-5.11,5.32-7.92,11.69-7.92,17.94,0,11.92,7.51,16.35,27.7,16.35s27.7-4.43,27.7-16.35c0-6.25-2.81-12.63-7.91-17.94a3.71,3.71,0,1,1,5.35-5.13c6.43,6.7,10,14.89,10,23.07C113.73,131.38,89.12,131.38,78.62,131.38Z" style="fill:#434a53"/><path d="M78.62,102.38A3.7,3.7,0,0,1,76,101.29l-5-5A3.71,3.71,0,0,1,76.23,91l5,5a3.71,3.71,0,0,1-2.62,6.33Z" style="fill:#434a53"/><path d="M78.62,102.38A3.66,3.66,0,0,1,76,101.29a3.7,3.7,0,0,1,0-5.24l5-5a3.71,3.71,0,0,1,5.25,5.24l-5,5A3.68,3.68,0,0,1,78.62,102.38Z" style="fill:#434a53"/><path d="M78.62,131.38a3.71,3.71,0,0,1-3.71-3.71v-29a3.71,3.71,0,1,1,7.41,0v29A3.7,3.7,0,0,1,78.62,131.38Z" style="fill:#434a53"/></g></g></svg>