<svg xmlns="http://www.w3.org/2000/svg" viewBox="0 0 158.99 192.14"><g id="Calque_2" data-name="Calque 2"><g id="_ÎÓÈ_1" data-name="—ÎÓÈ_1"><path d="M147.64,168.36c2.84-17.66,7-56.05,5-63.46-1.74-7.63-14.83-22.25-29.44-35.33L110.13,58,84.62,95.3l17.45,59.1v14Z" style="fill:#ffdbab;fill-rule:evenodd"/><rect x="96.18" y="168.36" width="59.1" height="20.06" style="fill:#659ec9"/><path d="M35.77,3.71H102.5a8.47,8.47,0,0,1,8.29,8.5V134.78a8.28,8.28,0,0,1-8.29,8.28H12a8.28,8.28,0,0,1-8.29-8.28v-99A16,16,0,0,1,8.51,24L23.77,8.72a16.66,16.66,0,0,1,12-5Z" style="fill:#f6f7f7;fill-rule:evenodd"/><path d="M3.71,35.77A16,16,0,0,1,8.51,24L23.77,8.72a16.66,16.66,0,0,1,12-5V28.79a7,7,0,0,1-7,7Z" style="fill:#e4e7e7;fill-rule:evenodd"/><path d="M56.49,47.33a14.78,14.78,0,0,1,21.8,0,14.37,14.37,0,0,1,4.58,10c0,8.28-7,9.81-15.48,9.81-8.29,0-15.27-1.53-15.27-9.81a14.17,14.17,0,0,1,4.37-10Z" style="fill:#659ec9;fill-rule:evenodd"/><path d="M67.39,19.41a9,9,0,0,1,8.94,8.94c0,5-3.92,13.52-8.94,13.52-4.8,0-8.94-8.5-8.94-13.52a9.12,9.12,0,0,1,8.94-8.94Z" style="fill:#ffdbab;fill-rule:evenodd"/><path d="M129.54,168.36l-16.79-55a79.23,79.23,0,0,1-19-20.93c-13.52-21.16-24.43-5.89-16.14,10.9,8.5,16.79,18.54,33.15,24.43,51v14Z" style="fill:#ffdbab;fill-rule:evenodd"/><path d="M147.65,172.07a3.92,3.92,0,0,1-.59,0,3.7,3.7,0,0,1-3.07-4.25c3.12-19.49,6.72-55.75,5.09-61.92-1.42-6.18-12.79-19.59-28.34-33.52a3.71,3.71,0,1,1,5-5.52c6.5,5.83,27.94,25.75,30.57,37.26,2.34,8.82-2.66,50.53-5,64.88A3.69,3.69,0,0,1,147.65,172.07Z" style="fill:#434a53"/><path d="M102.06,158.11a3.7,3.7,0,0,1-3.52-2.55c-4.25-12.91-10.88-25.33-17.29-37.34-2.35-4.38-4.68-8.76-6.92-13.17-5.21-10.56-4.09-21.73,2.54-25.46,2.25-1.28,10.36-4.24,20,10.88a75.75,75.75,0,0,0,18.13,20,3.71,3.71,0,1,1-4.56,5.85A82.81,82.81,0,0,1,90.65,94.46c-4.86-7.61-8.71-9.23-10.14-8.41-2,1.12-3.59,7.49.45,15.68,2.2,4.33,4.51,8.66,6.83,13,6.56,12.29,13.35,25,17.79,38.51a3.69,3.69,0,0,1-2.36,4.68A3.57,3.57,0,0,1,102.06,158.11Z" style="fill:#434a53"/><path d="M155.28,192.14H121.47a3.71,3.71,0,0,1,0-7.42h30.1V172.07H99.88v12.65h5.89a3.71,3.71,0,0,1,0,7.42H96.18a3.72,3.72,0,0,1-3.71-3.71V168.36a3.71,3.71,0,0,1,3.71-3.71h59.1a3.71,3.71,0,0,1,3.71,3.71v20.07A3.72,3.72,0,0,1,155.28,192.14Z" style="fill:#434a53"/><path d="M82.87,146.12H12a12,12,0,0,1-12-12V35.55a19.66,19.66,0,0,1,5.89-14.4L21.17,6.09A19.72,19.72,0,0,1,35.55,0h66.3a12.12,12.12,0,0,1,12,12.21V93.12a3.71,3.71,0,0,1-7.42,0V12.21a4.74,4.74,0,0,0-4.57-4.79H35.55a12.46,12.46,0,0,0-9.16,3.92L11.11,26.41a12.33,12.33,0,0,0-3.69,9.14v98.57A4.58,4.58,0,0,0,12,138.7H82.87a3.71,3.71,0,0,1,0,7.42Z" style="fill:#434a53"/><path d="M28.57,39.26H16.14a3.71,3.71,0,0,1,0-7.42H28.57a3.13,3.13,0,0,0,3.27-3.05V3.71a3.71,3.71,0,0,1,7.42,0V28.79A10.6,10.6,0,0,1,28.57,39.26Z" style="fill:#434a53"/><path d="M67.39,45.8c-7.72,0-12.65-11.46-12.65-17.45A12.82,12.82,0,0,1,67.39,15.7,12.66,12.66,0,0,1,80,28.35C80,34.27,75.57,45.8,67.39,45.8Zm0-22.68a5.43,5.43,0,0,0-5.23,5.23c0,4.2,3.63,10,5.23,10,1.85,0,5.23-5.89,5.23-10A5.29,5.29,0,0,0,67.39,23.12Z" style="fill:#434a53"/><path d="M67.39,70.88c-4.69,0-19,0-19-13.52a17.9,17.9,0,0,1,5.44-12.65,3.71,3.71,0,0,1,5.25,5.23,10.6,10.6,0,0,0-3.28,7.42c0,3.22.88,6.1,11.56,6.1S79,60.7,79,57.36a10.6,10.6,0,0,0-3.28-7.42,3.71,3.71,0,0,1,5.25-5.23,17.9,17.9,0,0,1,5.44,12.65C86.36,70.88,72.58,70.88,67.39,70.88Z" style="fill:#434a53"/><path d="M63.46,85.05h-27a3.71,3.71,0,1,1,0-7.41h27a3.71,3.71,0,1,1,0,7.41Z" style="fill:#434a53"/><path d="M63.25,100.32h-43a3.71,3.71,0,0,1,0-7.42h43a3.71,3.71,0,0,1,0,7.42Z" style="fill:#434a53"/><path d="M68,115.58H20.28a3.71,3.71,0,1,1,0-7.41H68a3.71,3.71,0,1,1,0,7.41Z" style="fill:#434a53"/><path d="M77.2,130.85H20.28a3.71,3.71,0,0,1,0-7.42H77.2a3.71,3.71,0,0,1,0,7.42Z" style="fill:#434a53"/></g></g></svg>