<svg xmlns="http://www.w3.org/2000/svg" viewBox="0 0 192.01 179.48"><g id="Calque_2" data-name="Calque 2"><g id="_ÎÓÈ_1" data-name="—ÎÓÈ_1"><path d="M22.45,127.14h147l18.1,37.51a7.92,7.92,0,0,1-.43,7.63,7.68,7.68,0,0,1-6.55,3.49h-169A7.41,7.41,0,0,1,5,172.28a7.37,7.37,0,0,1-.44-7.63Z" style="fill:#b9bbbb"/><path d="M22.45,127.14V41.87A11.18,11.18,0,0,1,33.58,30.75H158.32a11.17,11.17,0,0,1,11.12,11.12v85.27Z" style="fill:#f6f7f7;fill-rule:evenodd"/><rect x="45.57" y="3.71" width="100.75" height="123.43" style="fill:#fff"/><path d="M148.94,32.49a8.2,8.2,0,0,1,11.34-1.09l6.33,5a8.2,8.2,0,0,1,1.09,11.34l-48,59.32-21.37,7.41L101,92c15.92-19.84,32.06-39.69,48-59.54Z" style="fill:#fccb3a;fill-rule:evenodd"/><path d="M148.94,32.49a8.2,8.2,0,0,1,11.34-1.09l6.33,5a8.2,8.2,0,0,1,1.09,11.34l-7.42,9.16L141.53,41.87Z" style="fill:#ff697b;fill-rule:evenodd"/><polygon points="120.37 106.42 119.72 107.08 98.35 114.49 100.96 92.03 101.62 91.16 120.37 106.42" style="fill:#b9bbbb;fill-rule:evenodd"/><path d="M180.57,179.48h-169a11.14,11.14,0,0,1-9.72-5.29A11,11,0,0,1,1.25,163l10.22-21.52a3.71,3.71,0,0,1,6.7,3.18L7.92,166.24a3.72,3.72,0,0,0,.22,4,3.79,3.79,0,0,0,3.41,1.78h169a4,4,0,0,0,3.5-1.92c.4-.63,1-1.91.05-4.08l-17-35.22H22.46a3.71,3.71,0,0,1,0-7.42h147a3.69,3.69,0,0,1,3.33,2.1L190.88,163c1.71,4.1,1.47,7.92-.65,11.23A11.51,11.51,0,0,1,180.57,179.48Z" style="fill:#434a53"/><path d="M155.27,147.2H36.63a3.71,3.71,0,1,1,0-7.41H155.27a3.71,3.71,0,0,1,0,7.41Z" style="fill:#434a53"/><path d="M110.12,163.34H82a3.71,3.71,0,0,1,0-7.41h28.13a3.71,3.71,0,1,1,0,7.41Z" style="fill:#434a53"/><path d="M22.46,130.85a3.71,3.71,0,0,1-3.71-3.71V41.87A14.85,14.85,0,0,1,33.58,27a3.71,3.71,0,0,1,0,7.42,7.42,7.42,0,0,0-7.42,7.41v85.27A3.71,3.71,0,0,1,22.46,130.85Zm147-15.7a3.7,3.7,0,0,1-3.71-3.71V65.64a3.71,3.71,0,1,1,7.41,0v45.8A3.7,3.7,0,0,1,169.45,115.15Z" style="fill:#434a53"/><path d="M146.33,118.2a3.71,3.71,0,0,1-3.71-3.71V92A3.71,3.71,0,1,1,150,92v22.46A3.7,3.7,0,0,1,146.33,118.2Zm-100.76,0a3.71,3.71,0,0,1-3.7-3.71V3.71A3.71,3.71,0,0,1,45.57,0H146.33A3.7,3.7,0,0,1,150,3.71v17a3.71,3.71,0,1,1-7.41,0V7.42H49.28V114.49A3.71,3.71,0,0,1,45.57,118.2Z" style="fill:#434a53"/><path d="M98.35,118.2a3.74,3.74,0,0,1-2.32-.81,3.7,3.7,0,0,1-1.36-3.33L97.28,91.6a3.74,3.74,0,0,1,.8-1.9l32.71-40.56a3.71,3.71,0,1,1,5.77,4.66l-32,39.72-1.81,15.53,14.79-5.13,47.31-58.49a4.46,4.46,0,0,0-.63-6.21L158,34.31a4.53,4.53,0,0,0-6.23.61l-7.31,9.25a3.71,3.71,0,1,1-5.81-4.6L146,30.2a11.86,11.86,0,0,1,16.59-1.67l6.29,5a11.86,11.86,0,0,1,1.66,16.58l-48,59.31a3.66,3.66,0,0,1-1.67,1.17L99.57,118A3.68,3.68,0,0,1,98.35,118.2Z" style="fill:#434a53"/><path d="M160.28,60.63a3.68,3.68,0,0,1-2.32-.82L139.21,44.76A3.71,3.71,0,1,1,143.85,39L162.6,54a3.71,3.71,0,0,1-2.32,6.6Z" style="fill:#434a53"/><path d="M120.37,110.13a3.68,3.68,0,0,1-2.34-.83L99.28,94A3.71,3.71,0,1,1,104,88.28l18.75,15.27a3.7,3.7,0,0,1-2.34,6.58Z" style="fill:#434a53"/><path d="M129.32,21.81H92.24a3.71,3.71,0,1,1,0-7.42h37.08a3.71,3.71,0,0,1,0,7.42Zm-47.77,0H74.8a3.71,3.71,0,1,1,0-7.42h6.75a3.71,3.71,0,1,1,0,7.42Z" style="fill:#434a53"/><path d="M129.32,41H102.05a3.71,3.71,0,0,1,0-7.42h27.27a3.71,3.71,0,0,1,0,7.42Z" style="fill:#434a53"/><path d="M91.37,41H62.8a3.71,3.71,0,0,1,0-7.42H91.37a3.71,3.71,0,0,1,0,7.42Z" style="fill:#434a53"/><path d="M112.74,60.41H79.59a3.71,3.71,0,0,1,0-7.42h33.15a3.71,3.71,0,0,1,0,7.42Zm-43.84,0H62.8a3.71,3.71,0,0,1,0-7.42h6.1a3.71,3.71,0,0,1,0,7.42Z" style="fill:#434a53"/><path d="M99,79.6H91.37a3.71,3.71,0,1,1,0-7.41H99a3.71,3.71,0,1,1,0,7.41Zm-18.32,0H62.8a3.71,3.71,0,1,1,0-7.41H80.68a3.71,3.71,0,1,1,0,7.41Z" style="fill:#434a53"/><path d="M89,98.79h-9.6a3.71,3.71,0,0,1,0-7.41H89a3.71,3.71,0,1,1,0,7.41Zm-20.28,0H62.8a3.71,3.71,0,1,1,0-7.41h5.89a3.71,3.71,0,0,1,0,7.41Z" style="fill:#434a53"/><path d="M85.48,118.2H62.8a3.71,3.71,0,1,1,0-7.42H85.48a3.71,3.71,0,0,1,0,7.42Z" style="fill:#434a53"/></g></g></svg>