<svg xmlns="http://www.w3.org/2000/svg" viewBox="0 0 180.9 192.14"><g id="Calque_2" data-name="Calque 2"><g id="_ÎÓÈ_1" data-name="—ÎÓÈ_1"><path d="M84.18,177.88a84.14,84.14,0,0,0,84-84c0-46.23-37.73-84.18-84-84.18A84.37,84.37,0,0,0,0,93.92c0,46.23,37.73,84,84.18,84Z" style="fill:#d3d3d3;fill-rule:evenodd"/><path d="M169.56,168.36c2.83-17.66,7-56.05,5-63.46-1.75-7.63-14.83-22.25-29.45-35.33L132.05,58,106.53,95.3,124,154.4v14Z" style="fill:#efb18f;fill-rule:evenodd"/><rect x="118.09" y="168.36" width="59.1" height="20.06" style="fill:#659ec9"/><path d="M57.68,3.71h66.74a8.46,8.46,0,0,1,8.28,8.5V134.78a8.27,8.27,0,0,1-8.28,8.28H33.91a8.28,8.28,0,0,1-8.29-8.28v-99A16,16,0,0,1,30.42,24L45.69,8.72a16.64,16.64,0,0,1,12-5Z" style="fill:#f6f7f7;fill-rule:evenodd"/><path d="M25.62,35.77A16,16,0,0,1,30.42,24L45.69,8.72a16.64,16.64,0,0,1,12-5V28.79a7,7,0,0,1-7,7Z" style="fill:#e4e7e7;fill-rule:evenodd"/><path d="M78.4,47.33a14.79,14.79,0,0,1,21.81,0,14.37,14.37,0,0,1,4.58,10c0,8.28-7,9.81-15.49,9.81C81,67.17,74,65.64,74,57.36a14.16,14.16,0,0,1,4.36-10Z" style="fill:#659ec9;fill-rule:evenodd"/><path d="M89.3,19.41a9,9,0,0,1,9,8.94c0,5-3.93,13.52-9,13.52-4.79,0-8.94-8.5-8.94-13.52a9.13,9.13,0,0,1,8.94-8.94Z" style="fill:#efb18f;fill-rule:evenodd"/><path d="M151.46,168.36l-16.79-55a79.41,79.41,0,0,1-19-20.93c-13.52-21.16-24.42-5.89-16.14,10.9,8.51,16.79,18.54,33.15,24.43,51v14Z" style="fill:#efb18f;fill-rule:evenodd"/><path d="M169.56,172.07a4,4,0,0,1-.59,0,3.7,3.7,0,0,1-3.07-4.25C169,148.28,172.63,112,171,105.85c-1.41-6.18-12.79-19.59-28.33-33.52a3.71,3.71,0,1,1,5-5.52c6.51,5.83,27.94,25.75,30.58,37.26,2.34,8.82-2.67,50.53-5,64.88A3.71,3.71,0,0,1,169.56,172.07Z" style="fill:#434a53"/><path d="M124,158.11a3.7,3.7,0,0,1-3.52-2.55c-4.25-12.91-10.88-25.33-17.3-37.34-2.34-4.38-4.68-8.76-6.91-13.17C91,94.49,92.16,83.32,98.79,79.59c2.25-1.28,10.36-4.24,20,10.88a75.58,75.58,0,0,0,18.12,20,3.71,3.71,0,1,1-4.55,5.85,82.81,82.81,0,0,1-19.82-21.87c-4.87-7.61-8.72-9.23-10.14-8.41-2,1.12-3.59,7.49.45,15.68,2.19,4.33,4.5,8.66,6.82,13,6.57,12.29,13.35,25,17.8,38.51a3.7,3.7,0,0,1-2.36,4.68A3.66,3.66,0,0,1,124,158.11Z" style="fill:#434a53"/><path d="M177.19,192.14h-33.8a3.71,3.71,0,0,1,0-7.42h30.1V172.07H121.8v12.65h5.89a3.71,3.71,0,0,1,0,7.42h-9.6a3.71,3.71,0,0,1-3.71-3.71V168.36a3.71,3.71,0,0,1,3.71-3.71h59.1a3.71,3.71,0,0,1,3.71,3.71v20.07A3.71,3.71,0,0,1,177.19,192.14Z" style="fill:#434a53"/><path d="M104.79,146.12H33.91a12,12,0,0,1-12-12V35.55a19.66,19.66,0,0,1,5.89-14.4L43.08,6.09A19.74,19.74,0,0,1,57.46,0h66.3a12.11,12.11,0,0,1,12,12.21V93.12a3.71,3.71,0,1,1-7.41,0V12.21a4.75,4.75,0,0,0-4.58-4.79H57.46a12.44,12.44,0,0,0-9.15,3.92L33,26.41a12.3,12.3,0,0,0-3.7,9.14v98.57a4.59,4.59,0,0,0,4.58,4.58h70.88a3.71,3.71,0,0,1,0,7.42Z" style="fill:#434a53"/><path d="M50.48,39.26H38.05a3.71,3.71,0,0,1,0-7.42H50.48a3.14,3.14,0,0,0,3.28-3.05V3.71a3.71,3.71,0,1,1,7.41,0V28.79A10.59,10.59,0,0,1,50.48,39.26Z" style="fill:#434a53"/><path d="M89.3,45.8c-7.72,0-12.64-11.46-12.64-17.45A12.82,12.82,0,0,1,89.3,15.7,12.66,12.66,0,0,1,102,28.35C102,34.27,97.49,45.8,89.3,45.8Zm0-22.68a5.44,5.44,0,0,0-5.23,5.23c0,4.2,3.63,10,5.23,10,1.85,0,5.24-5.89,5.24-10A5.3,5.3,0,0,0,89.3,23.12Z" style="fill:#434a53"/><path d="M89.3,70.88c-4.69,0-19,0-19-13.52a17.87,17.87,0,0,1,5.45-12.65A3.7,3.7,0,1,1,81,49.94a10.59,10.59,0,0,0-3.27,7.42c0,3.22.88,6.1,11.55,6.1s11.56-2.76,11.56-6.1a10.59,10.59,0,0,0-3.27-7.42,3.7,3.7,0,1,1,5.24-5.23,17.91,17.91,0,0,1,5.45,12.65C108.28,70.88,94.49,70.88,89.3,70.88Z" style="fill:#434a53"/><path d="M85.38,85.05h-27a3.71,3.71,0,0,1,0-7.41H85.38a3.71,3.71,0,1,1,0,7.41Z" style="fill:#434a53"/><path d="M85.16,100.32h-43a3.71,3.71,0,0,1,0-7.42h43a3.71,3.71,0,1,1,0,7.42Z" style="fill:#434a53"/><path d="M90,115.58H42.2a3.71,3.71,0,1,1,0-7.41H90a3.71,3.71,0,1,1,0,7.41Z" style="fill:#434a53"/><path d="M99.12,130.85H42.2a3.71,3.71,0,0,1,0-7.42H99.12a3.71,3.71,0,0,1,0,7.42Z" style="fill:#434a53"/></g></g></svg>