<svg xmlns="http://www.w3.org/2000/svg" viewBox="0 0 4500 2953.24"><g id="Calque_2" data-name="Calque 2"><g id="_ÎÓÈ_1" data-name="—ÎÓÈ_1"><path d="M361.8,454.11H3750.71c162.43,0,299,136.59,299,302.71V2591.55c0,162.43-136.59,299-299,299H361.8c-162.43,0-299-136.59-299-299V756.82c0-166.12,136.59-302.71,299-302.71Z" style="fill:#fff;fill-rule:evenodd"/><path d="M1277.32,900.79c424.54,0,767.86,343.32,767.86,771.55s-343.32,771.55-767.86,771.55-771.55-343.32-771.55-771.55,347-771.55,771.55-771.55Z" style="fill:#c2eef8;fill-rule:evenodd"/><path d="M1277.32,900.79c136.59,0,265.8,33.23,376.55,99.68,59.06,107,92.29,232.57,92.29,365.47,0,428.22-343.32,771.54-767.86,771.54-140.28,0-269.49-33.22-380.24-99.67-59.06-107.06-92.29-232.57-92.29-365.47,0-428.23,347-771.55,771.55-771.55Z" style="fill:#dcf5fc;fill-rule:evenodd"/><path d="M1277.32,1908.6c188.27,0,350.71,166.13,428.23,406.08a774.23,774.23,0,0,1-856.46,0c77.53-239.95,240-406.08,428.23-406.08Z" style="fill:#da8b55;fill-rule:evenodd"/><path d="M1277.32,1908.6c29.54,0,55.38,3.69,84.91,11.08,103.36,107,180.89,273.18,206.73,468.83-88.6,36.92-188.27,55.38-291.64,55.38a770.56,770.56,0,0,1-428.23-129.21c77.53-239.95,240-406.08,428.23-406.08Z" style="fill:#f1bb81;fill-rule:evenodd"/><path d="M1705.54,2377.5a62.79,62.79,0,0,1-59.71-43.5c-71.15-220.27-215.82-362.71-368.5-362.71S980,2113.73,908.83,2334c-10.62,32.94-46.17,50.75-79,40.45a62.81,62.81,0,0,1-40.45-79.11c89.54-277.25,276.56-449.45,487.93-449.45s398.39,172.2,487.92,449.45a62.81,62.81,0,0,1-40.44,79.11A63.65,63.65,0,0,1,1705.54,2377.5Z" style="fill:#434a53"/><path d="M1277.32,1214.58c192,0,350.71,158.74,350.71,350.7,0,195.66-158.74,431.92-350.71,431.92-195.65,0-350.7-236.26-350.7-431.92,0-192,155.05-350.7,350.7-350.7Z" style="fill:#ffe2d0;fill-rule:evenodd"/><path d="M1277.32,1214.58c73.83,0,140.28,22.15,195.66,62.76a341.73,341.73,0,0,1,40.61,162.43c0,195.65-155,431.92-350.71,431.92-59.06,0-114.44-22.15-162.43-59.07-48-77.52-73.83-166.12-73.83-247.34,0-192,155.05-350.7,350.7-350.7Z" style="fill:#ffeee4;fill-rule:evenodd"/><path d="M1277.33,2059.93c-232.87,0-413.46-265.93-413.46-494.67,0-228,185.49-413.46,413.46-413.46s413.46,185.49,413.46,413.46C1690.79,1794,1510.2,2059.93,1277.33,2059.93Zm0-782.6c-158.78,0-287.94,129.15-287.94,287.93,0,166.23,132.84,369.27,287.94,369.27,152.36,0,287.93-206.54,287.93-369.27C1565.26,1409.21,1433.38,1277.33,1277.33,1277.33Z" style="fill:#434a53"/><path d="M1277.33,2506.59c-460,0-834.3-374.17-834.3-834.24s374.29-834.3,834.3-834.3c458,0,830.61,374.29,830.61,834.3S1735.3,2506.59,1277.33,2506.59Zm0-1543c-390.82,0-708.77,317.95-708.77,708.77s318,708.84,708.77,708.84c388.79,0,705.08-318.08,705.08-708.84S1666.12,963.58,1277.33,963.58Z" style="fill:#434a53"/><path d="M2934.8,1103.86H2691.25a62.77,62.77,0,0,1,0-125.53H2934.8a62.77,62.77,0,0,1,0,125.53Z" style="fill:#434a53"/><path d="M3252.37,1524.69H2407a62.76,62.76,0,0,1,0-125.52h845.37a62.76,62.76,0,0,1,0,125.52Z" style="fill:#434a53"/><path d="M3034.51,2366.31H2407a62.7,62.7,0,1,1,0-125.4h627.51a62.7,62.7,0,0,1,0,125.4Z" style="fill:#434a53"/><path d="M3665.83,1945.47H2407a62.7,62.7,0,1,1,0-125.4H3665.83a62.7,62.7,0,1,1,0,125.4Z" style="fill:#434a53"/><path d="M3765.47,1417.62c369.16,0,671.88-302.71,671.88-675.57,0-376.54-302.72-679.26-671.88-679.26-372.85,0-675.56,302.72-675.56,679.26,0,372.86,302.71,675.57,675.56,675.57Z" style="fill:#00cc7e;fill-rule:evenodd"/><path d="M3699,1026.28a77.64,77.64,0,0,1-62.82-32l-155-214.11a77.55,77.55,0,0,1,125.66-90.93l90.55,125.14,222.05-323c24.3-35.23,72.62-44.26,107.73-20a77.49,77.49,0,0,1,20,107.85L3762.87,992.7a77.46,77.46,0,0,1-63,33.58Z" style="fill:#fff"/><path d="M3750.66,2953.24H361.83C165.72,2953.24,0,2787.65,0,2591.54V756.85C0,555.33,162.34,391.33,361.83,391.33h2561.9a62.77,62.77,0,0,1,0,125.53H361.83c-128.07,0-236.3,109.88-236.3,240V2591.54c0,128.07,108.23,236.3,236.3,236.3H3750.66c128.07,0,236.42-108.23,236.42-236.3V1583.77a62.7,62.7,0,1,1,125.4,0V2591.54C4112.48,2787.65,3946.77,2953.24,3750.66,2953.24Z" style="fill:#434a53"/><path d="M3765.41,1480.37c-407.1,0-738.15-331.24-738.15-738.34,0-409.14,331-742,738.15-742,135.06,0,274,40.06,391.2,112.81a62.77,62.77,0,0,1-66.13,106.7c-97.67-60.6-213.15-94-325.07-94-337.79,0-612.75,276.55-612.75,616.5,0,337.92,275,612.82,612.75,612.82,335.88,0,609.19-274.9,609.19-612.82,0-132-43.11-264.53-121.2-373.15a62.78,62.78,0,0,1,14.37-87.56c28-20.28,67.15-13.86,87.63,14.31C4448.62,425.42,4500,584,4500,742,4500,1149.13,4170.48,1480.37,3765.41,1480.37Z" style="fill:#434a53"/></g></g></svg>