<svg xmlns="http://www.w3.org/2000/svg" viewBox="0 0 336.77 336.76"><g id="Calque_2" data-name="Calque 2"><g id="Black_White" data-name="Black &amp; White"><path d="M311.84,0h-287C11.14,0,0,10.87,0,24.27v288.2c0,13.41,11.14,24.29,24.86,24.29h287c13.74,0,24.93-10.88,24.93-24.29V24.27C336.77,10.87,325.58,0,311.84,0Zm-212,287H49.93V126.25H99.88Zm-25-182.69a29,29,0,1,1,28.94-29A29,29,0,0,1,74.92,104.28ZM287,287H237.05V208.81c0-18.64-.34-42.61-26-42.61-26,0-30,20.3-30,41.26V287H131.21V126.25h47.91v22h.67c6.67-12.63,23-25.95,47.26-25.95,50.58,0,59.92,33.29,59.92,76.55Z" style="fill:#eaeaea"/></g></g></svg>