<svg xmlns="http://www.w3.org/2000/svg" viewBox="0 0 336.76 336.76"><g id="Calque_2" data-name="Calque 2"><g id="Black_White" data-name="Black &amp; White"><path d="M291.39,0h-246A45.37,45.37,0,0,0,0,45.37v246a45.37,45.37,0,0,0,45.37,45.37h246a45.37,45.37,0,0,0,45.37-45.37v-246A45.37,45.37,0,0,0,291.39,0ZM252.85,125.06c.08,1.87.13,3.75.13,5.64,0,57.59-43.84,124-124,124a123.42,123.42,0,0,1-66.81-19.58,89.23,89.23,0,0,0,10.4.61,87.46,87.46,0,0,0,54.13-18.66A43.61,43.61,0,0,1,86,186.8a43.43,43.43,0,0,0,8.2.79,43.92,43.92,0,0,0,11.48-1.53,43.61,43.61,0,0,1-35-42.74v-.55a43.42,43.42,0,0,0,19.74,5.46A43.63,43.63,0,0,1,77,90a123.74,123.74,0,0,0,89.83,45.54,43.69,43.69,0,0,1,42.46-53.52,43.51,43.51,0,0,1,31.81,13.76,87.24,87.24,0,0,0,27.68-10.57,43.78,43.78,0,0,1-19.16,24.11,87.3,87.3,0,0,0,25-6.86A88.7,88.7,0,0,1,252.85,125.06Z" style="fill:#eaeaea"/></g></g></svg>